<svg width="33" height="28" viewBox="0 0 33 28" fill="none" xmlns="http://www.w3.org/2000/svg">
<path d="M1.70156 8.98752C1.70821 8.85446 1.81803 8.75 1.95125 8.75H21.0487C21.182 8.75 21.2918 8.85446 21.2984 8.98751L22.1984 26.9875C22.2056 27.1303 22.0917 27.25 21.9488 27.25H1.05125C0.908275 27.25 0.794421 27.1303 0.801561 26.9875L1.70156 8.98752Z" stroke="#313133" stroke-width="1.5"/>
<path fill-rule="evenodd" clip-rule="evenodd" d="M16.4664 12C16.4894 11.5233 16.5 11.023 16.5 10.5C16.5 7.91305 16.2196 5.8705 15.4677 4.50676C15.1108 3.85955 14.6568 3.38328 14.071 3.05707C13.4773 2.72643 12.6577 2.5 11.5 2.5C10.3423 2.5 9.52274 2.72643 8.92899 3.05707C8.34317 3.38328 7.88917 3.85955 7.53231 4.50676C6.78036 5.8705 6.5 7.91305 6.5 10.5C6.5 11.0225 6.50018 11.522 6.50614 12H5.00598C5 11.5114 5 11.0104 5 10.5C5 5.25329 6.08333 1 11.5 1C16.9167 1 18 5.25329 18 10.5C18 11.0104 17.9905 11.5114 17.9684 12H16.4664Z" fill="#313133"/>
</svg>
